<?xml version="1.0" standalone="no"?>
<!DOCTYPE svg PUBLIC "-//W3C//DTD SVG 20010904//EN"
 "http://www.w3.org/TR/2001/REC-SVG-20010904/DTD/svg10.dtd">
<svg version="1.0" xmlns="http://www.w3.org/2000/svg"
 width="1160.000000pt" height="432.000000pt" viewBox="0 0 1160.000000 432.000000"
 preserveAspectRatio="xMidYMid meet">

<g transform="translate(0.000000,432.000000) scale(0.100000,-0.100000)"
fill="#000000" stroke="none">
<path d="M4 3813 c3 -10 197 -754 431 -1653 234 -899 428 -1643 431 -1652 5
-17 270 -18 5371 -18 4288 0 5364 3 5360 13 -2 6 -216 734 -475 1617 -259 883
-478 1629 -487 1658 l-16 52 -5310 0 c-5053 0 -5310 -1 -5305 -17z m8541
-1645 c215 -342 391 -627 393 -635 3 -11 -42 -13 -242 -13 l-245 0 -152 244
c-84 135 -156 243 -159 241 -3 -2 -73 -112 -155 -244 l-150 -241 -247 0 c-137
0 -248 2 -248 4 0 4 548 879 749 1199 24 37 48 67 54 67 7 0 188 -280 402
-622z m922 329 c194 -153 357 -277 362 -277 6 0 171 126 366 280 195 154 362
280 370 280 13 0 15 -76 13 -627 l-3 -628 -197 -3 -198 -2 0 250 c0 137 -2
250 -5 250 -3 0 -82 -54 -176 -119 l-170 -120 -169 120 c-93 65 -171 119 -174
119 -3 0 -6 -112 -6 -250 l0 -250 -200 0 -200 0 0 628 c0 346 3 632 7 635 3 4
11 3 17 -2 6 -4 169 -132 363 -284z m-8047 -382 l0 -595 -200 0 -200 0 0 595
0 595 200 0 200 0 0 -595z m640 375 l0 -220 235 0 235 0 0 220 0 220 200 0
200 0 0 -595 0 -595 -200 0 -200 0 0 215 0 215 -235 0 -235 0 0 -215 0 -215
-200 0 -200 0 0 595 0 595 200 0 200 0 0 -220z m1492 -142 c4 -496 -9 -471
258 -466 l172 3 23 28 c41 47 45 85 45 450 l0 347 203 -2 202 -3 -1 -355 c-1
-327 -3 -361 -22 -432 -55 -204 -171 -330 -350 -379 -90 -25 -465 -28 -557 -4
-131 35 -253 131 -309 247 -60 124 -68 182 -73 555 -3 188 -3 349 0 358 6 13
36 15 206 15 l200 0 3 -362z m2248 182 l0 -180 -376 0 c-239 0 -382 -4 -395
-10 -22 -12 -25 -35 -6 -47 6 -4 147 -10 312 -13 l301 -5 66 -33 c75 -37 110
-72 147 -152 24 -50 26 -66 25 -175 0 -100 -4 -130 -23 -177 -28 -71 -98 -151
-165 -186 l-51 -27 -473 -3 -472 -3 2 173 3 173 393 5 c373 5 394 6 408 24 29
41 10 44 -299 48 -273 4 -296 5 -348 26 -122 48 -203 160 -215 297 -19 212 98
390 283 434 21 5 228 9 461 10 l422 1 0 -180z m1410 0 l0 -180 -384 0 c-338 0
-385 -2 -397 -16 -9 -11 -10 -20 -2 -32 9 -15 45 -18 309 -23 340 -6 359 -10
443 -85 84 -75 119 -198 100 -349 -19 -148 -98 -261 -212 -304 -56 -20 -72
-21 -512 -21 l-455 0 0 175 0 175 383 0 c330 0 386 2 405 16 26 18 29 39 6 48
-9 3 -127 6 -263 6 -265 0 -338 8 -413 46 -113 57 -170 154 -176 301 -7 160
48 283 161 358 93 61 115 64 585 64 l422 1 0 -180z"/>
</g>
</svg>
