<?xml version="1.0" standalone="no"?>
<!DOCTYPE svg PUBLIC "-//W3C//DTD SVG 20010904//EN"
 "http://www.w3.org/TR/2001/REC-SVG-20010904/DTD/svg10.dtd">
<svg version="1.0" xmlns="http://www.w3.org/2000/svg"
 width="80000.000000pt" height="45000.000000pt" viewBox="0 0 8000.000000 4500.000000"
 preserveAspectRatio="xMidYMid meet">
<metadata>
Created by potrace 1.16, written by Peter Selinger 2001-2019
</metadata>
<g transform="translate(0.000000,4500.000000) scale(0.100000,-0.100000)"
fill="#000000" stroke="none">
<path d="M58380 30015 l0 -2425 -1777 2 -1778 3 -3 270 -2 270 -583 -2 -582
-2 -54 -88 c-64 -104 -1197 -1802 -1214 -1820 -9 -9 -41 33 -137 180 -68 106
-189 287 -268 402 -80 116 -306 453 -503 750 -197 297 -364 548 -371 558 -12
17 -45 18 -593 20 l-580 2 0 -2890 0 -2889 45 -10 c53 -11 1087 -14 1113 -4
18 8 18 76 15 1823 -2 998 -1 1815 2 1815 3 0 17 -22 30 -49 50 -99 955 -1450
975 -1455 11 -3 133 -6 270 -6 179 0 256 4 273 13 17 9 808 1202 966 1457 l28
45 -6 -1822 c-4 -1504 -3 -1822 8 -1826 54 -21 955 -13 1118 9 l48 7 2 671 3
671 1778 3 1777 2 0 -2425 0 -2425 1030 0 1030 0 0 300 0 300 -730 0 -730 0
-2 2380 -3 2380 -2075 3 -2075 2 0 235 0 235 2665 2 2665 3 3 255 2 255 -2667
2 -2668 3 0 375 0 375 2658 3 2657 2 0 260 0 260 -2660 0 -2660 0 2 298 3 297
2075 2 2075 3 3 2380 2 2380 730 0 730 0 0 300 0 300 -1030 0 -1030 0 0 -2425z"/>
<path d="M20300 28990 l0 -300 733 -2 732 -3 3 -2382 2 -2383 1995 0 1995 0 0
-295 0 -295 -2575 0 -2575 0 0 -260 0 -260 2575 0 2575 0 0 -375 0 -375 -2582
-2 -2583 -3 -3 -262 -2 -263 2585 0 2585 0 0 -230 0 -230 -1995 0 -1995 0 -2
-2382 -3 -2383 -732 -3 -733 -2 0 -300 0 -300 1035 0 1035 0 2 2420 3 2420
1689 0 c929 0 1691 -2 1693 -3 2 -2 3 -878 3 -1947 l0 -1942 417 6 c230 3 742
9 1138 12 404 4 728 10 737 15 47 25 45 -42 52 1744 3 924 9 1866 12 2093 l6
412 1209 0 1209 0 0 -2141 0 -2141 418 6 c229 3 743 9 1141 12 l724 6 23 23
c13 13 25 34 28 47 3 12 16 2417 30 5343 14 2926 28 5501 30 5721 l4 402 -36
6 c-139 23 -438 30 -1237 31 -811 0 -1045 -7 -1108 -31 -23 -8 -26 -275 -33
-2766 l-6 -2288 -1199 0 -1199 0 1 363 c0 199 8 1334 18 2522 10 1188 17 2161
17 2162 -1 1 -38 6 -82 12 -336 42 -2160 39 -2296 -4 -17 -6 -18 -67 -18
-1886 l0 -1879 -1691 -2 c-930 -2 -1693 -1 -1695 1 -2 2 -4 1093 -4 2423 l0
2418 -1035 0 -1035 0 0 -300z"/>
<path d="M38228 28123 l-138 -4 0 -1743 c0 -1701 0 -1744 19 -1767 l19 -24
689 -8 c378 -4 802 -10 941 -13 l252 -6 0 -519 0 -519 -940 0 -941 0 7 -572
c4 -315 10 -583 13 -595 l6 -22 1494 -5 c1087 -4 1498 -3 1508 5 11 10 13 305
13 1714 l0 1702 -652 6 c-359 4 -785 7 -945 7 l-293 0 0 413 c0 228 -3 495 -7
595 l-6 182 944 2 944 3 3 583 2 582 -423 0 c-233 0 -862 2 -1398 4 -536 2
-1036 1 -1111 -1z"/>
<path d="M42088 28123 l-138 -4 0 -1743 c0 -1701 0 -1744 19 -1767 l19 -24
689 -8 c378 -4 802 -10 941 -13 l252 -6 0 -519 0 -519 -940 0 -941 0 7 -572
c4 -315 10 -583 13 -595 l6 -22 1494 -5 c1087 -4 1498 -3 1508 5 11 10 13 305
13 1714 l0 1702 -652 6 c-359 4 -785 7 -945 7 l-293 0 0 413 c0 228 -3 495 -7
595 l-6 182 944 2 944 3 3 583 2 582 -423 0 c-233 0 -862 2 -1398 4 -536 2
-1036 1 -1111 -1z"/>
<path d="M33935 28113 c-33 -2 -70 -5 -82 -8 l-23 -5 3 -2890 2 -2890 1702 0
1703 0 14 23 c12 19 17 426 34 2882 11 1573 18 2862 16 2864 -19 20 -1099 37
-1166 18 l-28 -7 0 -2290 0 -2290 -540 0 -540 0 0 2284 0 2284 -24 6 c-70 17
-843 31 -1071 19z"/>
<path d="M46105 28110 c-137 -4 -253 -8 -256 -9 -3 0 -9 -1240 -13 -2753 -3
-1514 -9 -2815 -13 -2890 l-6 -138 561 0 c323 0 571 4 585 9 25 10 25 10 31
193 3 101 9 600 12 1111 l6 927 378 0 c207 0 418 -3 468 -6 l92 -7 0 -791 c0
-435 3 -936 7 -1113 l6 -323 562 0 c523 0 563 1 577 18 14 15 18 321 31 2887
8 1579 13 2871 12 2873 -15 16 -2513 26 -3040 12z m1837 -1186 c4 -3 8 -268 8
-590 l0 -584 -464 0 -463 0 4 583 c3 320 6 588 9 596 4 12 72 13 451 7 246 -4
451 -10 455 -12z"/>
<path d="M40776 21119 c-74 -71 -138 -139 -141 -150 -13 -41 9 -76 117 -186
113 -114 150 -140 190 -130 25 7 298 276 298 295 0 14 -197 226 -250 268 -23
19 -51 34 -61 34 -9 0 -78 -59 -153 -131z"/>
<path d="M37990 19625 l0 -1365 2920 0 2920 0 0 1355 0 1355 -280 0 -280 0 0
-1095 0 -1095 -585 0 -585 0 0 585 0 585 -280 0 -280 0 0 -585 0 -585 -160 0
-160 0 0 470 0 470 -285 0 -285 0 0 -470 0 -470 -175 0 -175 0 0 470 0 470
-270 0 -270 0 0 -470 0 -470 -612 2 -613 3 4 1103 4 1102 -277 0 -276 0 0
-1365z"/>
<path d="M48170 19625 l0 -1365 3470 0 3470 0 0 253 0 252 -657 683 -658 682
-192 -192 c-106 -106 -193 -196 -193 -200 0 -4 207 -218 460 -477 253 -258
460 -472 460 -475 0 -3 -461 -6 -1025 -6 l-1025 0 0 585 0 585 -280 0 -280 0
0 -585 0 -585 -160 0 -160 0 0 470 0 470 -285 0 -285 0 0 -470 0 -470 -175 0
-175 0 0 470 0 470 -270 0 -270 0 0 -470 0 -470 -612 2 -613 3 4 1103 4 1102
-277 0 -276 0 0 -1365z"/>
<path d="M44200 19615 l0 -1355 280 0 280 0 0 1355 0 1355 -280 0 -280 0 0
-1355z"/>
<path d="M40528 20537 c-132 -120 -188 -181 -188 -206 0 -40 25 -71 146 -185
96 -89 130 -116 151 -116 22 0 53 25 146 118 l118 117 32 -35 c18 -20 71 -73
119 -118 67 -63 93 -82 115 -82 23 0 54 26 171 143 78 78 142 147 142 153 0
17 -199 233 -249 271 -23 18 -49 33 -56 33 -8 0 -71 -52 -140 -116 l-126 -116
-119 116 c-71 70 -126 116 -138 116 -12 0 -66 -41 -124 -93z"/>
<path d="M37080 19365 l0 -585 -360 0 -360 0 0 570 0 570 -275 0 -275 0 -2
-567 -3 -568 -692 -3 -693 -2 0 445 0 445 -265 0 -265 0 0 -705 0 -705 1875 0
1875 0 0 845 0 845 -280 0 -280 0 0 -585z"/>
<path d="M46380 19365 l0 -585 -325 0 -325 0 0 -260 0 -260 1035 0 1035 0 0
845 0 845 -710 0 -710 0 0 -585z m920 -260 l0 -325 -215 0 -215 0 0 325 0 325
215 0 215 0 0 -325z"/>
<path d="M36783 18021 c-37 -32 -106 -97 -152 -145 -74 -76 -82 -89 -76 -113
10 -42 129 -173 233 -256 58 -47 75 -40 197 83 60 61 114 110 119 110 6 0 60
-49 121 -110 152 -149 138 -150 317 27 82 82 138 145 138 156 0 35 -266 307
-301 307 -5 0 -65 -55 -135 -121 l-126 -122 -111 110 c-62 61 -122 116 -134
122 -20 10 -30 5 -90 -48z"/>
<path d="M34944 17908 c-74 -72 -137 -141 -140 -154 -9 -36 18 -72 139 -191
155 -153 141 -154 320 25 77 77 137 145 137 156 0 22 -142 180 -223 248 -32
26 -67 48 -78 48 -12 0 -73 -52 -155 -132z"/>
</g>
</svg>
